<svg width="84" height="19" viewBox="0 0 84 19" xmlns="https://www.w3.org/2000/svg" xmlns:xlink="http://www.w3.org/1999/xlink"><title>88370368-DFE3-4153-9E17-160D80C26857</title><defs><path id="a" d="M8.286.363H.417v18.043h7.869V.363z"/><path id="c" d="M.195.363h7.867v18.043H.195V.363z"/><path id="e" d="M0 18.637h83.544V.594H0z"/></defs><g fill="none" fill-rule="evenodd"><path d="M59.337 9.582c0 3.554-1.627 6.428-3.628 6.428-2.009 0-3.634-2.874-3.634-6.428 0-3.553 1.625-6.43 3.634-6.43 2.001 0 3.628 2.877 3.628 6.43z" fill="#FFF"/><g transform="translate(56.789 .23)"><mask id="b" fill="#fff"><use xlink:href="#a"/></mask><path d="M.565.363C4.517 1.186 7.5 4.908 7.5 9.37c0 4.52-3.061 8.274-7.084 9.037h7.869V.363H.565z" fill="#FFF" mask="url(#b)"/></g><g transform="translate(46.14 .23)"><mask id="d" fill="#fff"><use xlink:href="#c"/></mask><path d="M.982 9.369c0-4.46 2.98-8.183 6.934-9.006H.195v18.043h7.867C4.042 17.643.982 13.89.982 9.37" fill="#FFF" mask="url(#d)"/></g><path fill="#FFF" d="M70.296.619L75.32 10.9V.619zM69.902 18.637h5.268L69.902 7.6z"/><mask id="f" fill="#fff"><use xlink:href="#e"/></mask><path fill="#FFF" mask="url(#f)" d="M80.145 18.637h3.4V.597h-3.4zM11.878 18.637h5V.597h-5zM30.958.596H17.73v3.287h4.084v14.754h5.043V3.883h4.101zM11.028 18.627v-3.282H5.047V.596H0v18.03zM45.498 18.627V15.33H36.82v-4.048h7.684V7.988H36.82V3.883h8.678V.596h-13.69v18.03z"/></g></svg>